<svg width="60" height="65" viewBox="0 0 60 65" fill="none" xmlns="http://www.w3.org/2000/svg">
<circle cx="7" cy="20" r="5" transform="rotate(-180 7 20)" fill="#E97204"/>
<circle cx="24" cy="12" r="5" transform="rotate(-180 24 12)" fill="#E97204"/>
<circle cx="42" cy="5" r="5" transform="rotate(-180 42 5)" fill="#E97204"/>
<path d="M53.2392 17.3438C37.8987 23.7589 22.5582 30.174 7.21771 36.5891C10.5647 37.9837 14.1907 39.3783 17.5377 40.7729C19.769 39.3783 43.1981 25.7113 43.756 25.7113C44.0349 25.7113 44.3138 25.9903 44.3138 26.2692C44.3138 27.1059 28.4155 42.7253 26.4631 44.6778L24.2317 53.8821L32.5992 46.9091L44.8716 58.3448C45.7084 54.161 51.8446 22.9222 52.9603 17.3438H53.2392ZM52.1235 11.4865C56.5862 9.81302 60.491 12.6022 59.3754 17.6227C59.3754 17.6227 51.8446 55.8345 51.0078 59.7393C50.45 63.9231 44.8716 65.5966 41.2457 62.5285L32.5992 54.7188L25.6263 60.5761C22.2793 63.0864 19.4901 60.0183 18.3744 56.9502C17.8166 55.2767 15.5852 48.5826 14.7485 45.7934C11.9593 44.6778 5.5442 42.1675 3.87069 41.3308C-1.14983 39.3783 -1.42875 33.521 3.87069 31.5686C20.0479 24.8746 36.2252 17.6227 52.4024 11.2076L52.1235 11.4865Z" fill="#E97204"/>
</svg>
