<svg width="149" height="161" viewBox="0 0 149 161" fill="none" xmlns="http://www.w3.org/2000/svg">
<circle cx="17.5094" cy="50.0269" r="12.5067" transform="rotate(-180 17.5094 50.0269)" fill="white"/>
<circle cx="60.0323" cy="30.0162" r="12.5067" transform="rotate(-180 60.0323 30.0162)" fill="white"/>
<circle cx="105.057" cy="12.5067" r="12.5067" transform="rotate(-180 105.057 12.5067)" fill="white"/>
<path d="M133.17 43.3829C94.7977 59.4293 56.4258 75.4757 18.054 91.5221C26.426 95.0105 35.4957 98.4988 43.8678 101.987C49.4491 98.4988 108.053 64.313 109.449 64.313C110.146 64.313 110.844 65.0107 110.844 65.7083C110.844 67.8014 71.0769 106.871 66.1932 111.755L60.6119 134.778L81.542 117.336L112.239 145.94C114.332 135.475 129.681 57.3363 132.472 43.3829H133.17ZM130.379 28.7318C141.542 24.5458 151.309 31.5225 148.518 44.0806C148.518 44.0806 129.681 139.661 127.588 149.429C126.193 159.894 112.239 164.08 103.17 156.405L81.542 136.871L64.1002 151.522C55.7282 157.801 48.7515 150.126 45.9608 142.452C44.5655 138.266 38.9841 121.522 36.8911 114.545C29.9144 111.755 13.868 105.476 9.68194 103.383C-2.87612 98.4988 -3.57379 83.8478 9.68194 78.9641C50.1468 62.22 90.6117 44.0806 131.077 28.0341L130.379 28.7318Z" fill="white"/>
</svg>
