<svg width="60" height="54" viewBox="0 0 60 54" fill="none" xmlns="http://www.w3.org/2000/svg">
<path d="M53.2392 6.3438C37.8987 12.7589 22.5582 19.174 7.21771 25.5891C10.5647 26.9837 14.1907 28.3783 17.5377 29.7729C19.769 28.3783 43.1981 14.7113 43.756 14.7113C44.0349 14.7113 44.3138 14.9903 44.3138 15.2692C44.3138 16.1059 28.4155 31.7253 26.4631 33.6778L24.2317 42.8821L32.5992 35.9091L44.8716 47.3448C45.7084 43.161 51.8446 11.9222 52.9603 6.3438H53.2392ZM52.1235 0.486526C56.5862 -1.18698 60.491 1.6022 59.3754 6.62272C59.3754 6.62272 51.8446 44.8345 51.0078 48.7393C50.45 52.9231 44.8716 54.5966 41.2457 51.5285L32.5992 43.7188L25.6263 49.5761C22.2793 52.0864 19.4901 49.0183 18.3744 45.9502C17.8166 44.2767 15.5852 37.5826 14.7485 34.7934C11.9593 33.6778 5.5442 31.1675 3.87069 30.3308C-1.14983 28.3783 -1.42875 22.521 3.87069 20.5686C20.0479 13.8746 36.2252 6.62272 52.4024 0.207608L52.1235 0.486526Z" fill="#E97204"/>
</svg>
